<?xml version="1.0" standalone="no"?>
<!DOCTYPE svg PUBLIC "-//W3C//DTD SVG 20010904//EN"
 "http://www.w3.org/TR/2001/REC-SVG-20010904/DTD/svg10.dtd">
<svg version="1.0" xmlns="http://www.w3.org/2000/svg"
 width="526.000000pt" height="526.000000pt" viewBox="0 0 526.000000 526.000000"
 preserveAspectRatio="xMidYMid meet">
<metadata>
Created by potrace 1.11, written by Peter Selinger 2001-2013
</metadata>
<g transform="translate(0.000000,526.000000) scale(0.100000,-0.100000)"
fill="#000000" stroke="none">
<path d="M785 5231 c-86 -21 -166 -87 -207 -169 l-23 -47 0 -495 c0 -546 -3
-521 64 -586 l31 -30 2 -1002 3 -1002 33 -32 c29 -29 39 -33 87 -33 47 0 59 4
85 30 16 17 31 41 34 55 2 14 5 465 5 1002 l1 977 61 32 c64 34 134 104 167
167 10 20 31 80 46 132 66 227 168 325 409 392 38 10 86 27 106 38 61 31 136
105 170 169 l32 61 748 0 749 0 13 -31 c13 -33 81 -124 108 -147 54 -45 141
-86 201 -96 14 -2 49 -13 77 -24 168 -64 243 -152 313 -367 18 -55 43 -117 54
-138 33 -58 112 -132 170 -161 l53 -26 1 -193 c0 -105 1 -209 1 -229 1 -26 10
-47 31 -71 54 -62 146 -56 195 11 18 25 20 45 23 256 l3 229 35 39 c19 22 40
51 46 66 8 19 12 172 13 492 2 465 -2 518 -34 579 -24 44 -85 103 -135 129
l-51 27 -500 0 -500 0 -37 -23 c-21 -13 -46 -34 -56 -47 l-18 -23 -754 0 -754
-1 -42 39 c-23 21 -59 43 -80 49 -44 12 -929 14 -979 2z m865 -252 c0 -21 -32
-65 -64 -87 -18 -12 -67 -31 -110 -42 -103 -26 -206 -77 -286 -141 -122 -98
-194 -208 -251 -388 -26 -81 -41 -112 -70 -142 -71 -74 -68 -88 -69 370 l0
410 22 15 c19 14 75 16 425 16 286 0 403 -3 403 -11z m2805 -3 c19 -13 20 -32
20 -429 l0 -415 -37 19 c-45 23 -78 78 -103 169 -37 140 -103 251 -205 350
-78 75 -150 116 -286 162 -114 38 -154 57 -185 88 -16 16 -39 54 -39 64 0 3
184 6 408 6 334 0 412 -3 427 -14z"/>
<path d="M2537 4624 c-1 -1 -30 -5 -65 -8 -499 -48 -971 -384 -1190 -846 -41
-87 -97 -248 -107 -309 -3 -19 -8 -37 -10 -41 -12 -20 -31 -231 -29 -323 12
-509 266 -962 697 -1242 156 -101 320 -165 532 -208 104 -22 142 -24 290 -22
94 2 181 6 195 9 14 3 39 9 55 11 473 82 888 403 1093 846 61 131 99 248 118
364 2 17 8 55 13 85 10 58 7 338 -4 405 -33 202 -109 407 -214 575 -204 327
-565 586 -926 665 -93 20 -112 23 -175 31 -52 6 -267 13 -273 8z m258 -259
c116 -11 271 -57 376 -110 l50 -26 -133 -97 c-182 -133 -170 -123 -297 -217
-63 -46 -124 -89 -136 -95 -20 -11 -46 6 -271 169 -137 99 -254 184 -259 189
-6 5 -23 17 -38 26 -15 10 -27 22 -27 26 0 4 33 21 73 38 227 95 414 123 662
97z m-947 -595 c153 -464 144 -433 125 -448 -10 -7 -94 -68 -186 -135 -92 -67
-216 -157 -275 -200 l-107 -79 -7 34 c-10 43 -12 267 -4 337 27 215 126 450
259 616 45 56 110 126 113 122 1 -1 38 -112 82 -247z m1753 150 c147 -177 244
-394 277 -620 10 -67 7 -353 -4 -371 -7 -13 -56 18 -287 186 -153 111 -283
207 -289 213 -7 7 -4 31 12 79 74 232 193 599 197 606 5 9 30 -15 94 -93z
m-1253 -215 c40 -27 72 -52 72 -55 0 -3 -29 -25 -63 -49 -34 -25 -83 -59 -108
-78 l-46 -33 -66 204 c-37 112 -67 206 -67 209 0 3 47 -29 103 -71 57 -42 136
-99 175 -127z m842 148 c-9 -32 -40 -127 -67 -211 l-50 -152 -104 75 c-57 42
-105 79 -107 83 -2 7 159 129 251 192 12 8 38 27 57 42 19 15 35 28 36 28 1 0
-6 -26 -16 -57z m-494 -400 c28 -21 95 -69 149 -108 54 -38 108 -79 121 -90
l24 -20 -67 -206 -66 -205 -211 1 c-245 2 -236 1 -236 18 0 6 -28 98 -63 203
l-63 190 109 80 c59 43 136 100 170 126 34 26 67 47 72 47 6 1 33 -16 61 -36z
m-579 -509 l40 -120 -219 -1 c-120 0 -216 3 -212 6 26 27 340 248 345 243 4
-4 24 -61 46 -128z m1229 35 c160 -116 172 -124 198 -142 16 -12 -15 -14 -203
-14 -153 1 -220 4 -218 11 3 6 21 64 42 129 21 64 39 117 40 117 2 0 65 -45
141 -101z m-1144 -409 l36 0 27 -82 c15 -46 29 -90 32 -98 3 -8 7 -19 8 -25 4
-16 124 -385 142 -433 8 -24 14 -45 12 -46 -8 -6 -146 26 -219 51 -288 98
-539 306 -695 576 -18 31 -24 51 -17 55 8 6 199 6 674 2z m568 -4 c0 -8 -113
-363 -127 -396 -3 -8 -36 77 -73 190 l-67 205 46 5 c76 8 221 6 221 -4z m948
4 l42 0 -21 -42 c-42 -84 -134 -204 -224 -293 -183 -182 -416 -303 -672 -349
-30 -5 -32 -4 -23 17 5 12 50 150 100 307 118 368 112 351 132 359 13 5 321 6
666 1z"/>
<path d="M4448 3299 c-15 -6 -37 -26 -49 -46 l-22 -35 0 -923 c0 -508 -2 -927
-6 -932 -3 -4 -27 -19 -54 -32 -55 -28 -132 -103 -165 -162 -12 -22 -32 -75
-43 -117 -63 -234 -170 -343 -398 -407 -52 -14 -114 -37 -137 -51 -59 -34
-127 -107 -160 -170 l-28 -54 -748 0 -748 0 -25 51 c-54 106 -166 192 -285
219 -30 7 -92 30 -138 51 -144 66 -221 166 -271 352 -12 43 -31 97 -43 120
-29 58 -126 150 -182 173 l-46 19 -1 155 c0 85 -2 164 -4 174 -7 36 -41 71
-84 85 -51 16 -81 9 -124 -28 l-32 -29 -3 -178 -3 -178 -31 -30 c-66 -68 -63
-41 -63 -586 0 -487 0 -496 22 -540 27 -57 94 -124 153 -153 44 -22 51 -22
525 -25 534 -3 531 -3 596 63 l34 34 754 0 754 0 18 -24 c11 -13 36 -34 57
-47 l37 -23 500 0 500 0 51 27 c50 26 111 85 135 130 32 58 36 124 35 583 -2
425 -3 463 -20 498 -10 20 -31 48 -47 62 l-29 24 -1 926 c0 612 -4 935 -11
955 -23 67 -95 96 -170 69z m-3572 -2221 c27 -29 59 -101 69 -153 13 -78 90
-217 161 -294 113 -122 210 -177 414 -235 60 -18 75 -27 108 -70 45 -58 59
-56 -383 -56 -392 0 -406 1 -425 20 -19 19 -20 33 -20 430 l0 411 28 -15 c15
-8 37 -25 48 -38z m3599 -358 c0 -374 -1 -411 -17 -430 -17 -19 -28 -20 -427
-20 -401 0 -409 0 -404 20 3 10 19 35 37 54 26 29 49 40 136 67 121 36 181 64
266 125 136 96 227 240 281 444 17 65 49 111 95 133 18 9 33 17 33 17 0 0 0
-184 0 -410z"/>
<path d="M1709 1378 c-10 -4 -19 -5 -19 -2 0 3 -14 -5 -31 -17 -76 -54 -70
-171 11 -211 33 -17 98 -18 983 -15 l949 2 34 37 c28 31 34 46 34 80 0 57 -29
103 -74 118 -41 13 -1852 21 -1887 8z"/>
<path d="M1983 1055 c-37 -16 -59 -47 -68 -96 -10 -57 32 -123 86 -135 13 -3
304 -5 646 -6 596 0 624 0 655 19 81 47 81 165 -1 211 -39 22 -42 22 -662 22
-508 -1 -630 -3 -656 -15z"/>
</g>
</svg>
