<svg xmlns="http://www.w3.org/2000/svg" xmlns:xlink="http://www.w3.org/1999/xlink" viewBox="0 0 38.04 37.29"><defs><style>.cls-1,.cls-3,.cls-4,.cls-6{fill:none;}.cls-2{clip-path:url(#clip-path);}.cls-3,.cls-6{stroke:#fff;}.cls-3,.cls-4,.cls-6{stroke-linecap:round;stroke-linejoin:round;}.cls-3,.cls-4{stroke-width:1.75px;}.cls-4{stroke:#e63d8d;}.cls-5{fill:#e63d8d;stroke:#e83c8d;stroke-miterlimit:10;}.cls-6{stroke-width:3px;}</style><clipPath id="clip-path" transform="translate(0 -4.39)"><path class="cls-1" d="M37.14,26.75V42H.89V26.75ZM37.54,0H.89V12H37.54Z"/></clipPath></defs><title>Skull Logo</title><g id="Layer_2" data-name="Layer 2"><g id="Back"><g class="cls-2"><polygon class="cls-3" points="34.66 0.88 3.38 0.88 3.38 27.67 9.12 27.67 9.12 36.42 28.92 36.42 28.92 27.67 34.66 27.67 34.66 0.88"/></g><line class="cls-3" x1="19.02" y1="36.42" x2="19.02" y2="30.14"/><line class="cls-3" x1="24.48" y1="36.42" x2="24.48" y2="30.14"/><line class="cls-3" x1="13.54" y1="36.42" x2="13.54" y2="30.14"/><rect class="cls-4" x="20.62" y="7.58" width="16.54" height="14.75"/><rect class="cls-4" x="0.88" y="7.58" width="16.54" height="14.75"/><rect class="cls-5" x="17.42" y="14.07" width="3.2" height="1.77"/><polyline class="cls-6" points="26.89 12.99 26.89 16.65 30.7 16.65"/><polyline class="cls-6" points="7.24 13.13 7.24 16.79 11.05 16.79"/></g></g></svg>